<?xml version="1.0" standalone="no"?>
<!DOCTYPE svg PUBLIC "-//W3C//DTD SVG 20010904//EN"
 "http://www.w3.org/TR/2001/REC-SVG-20010904/DTD/svg10.dtd">
<svg version="1.0" xmlns="http://www.w3.org/2000/svg"
 width="200.000000pt" height="200.000000pt" viewBox="0 0 200.000000 200.000000"
 preserveAspectRatio="xMidYMid meet">
<metadata>
Created by potrace 1.14, written by Peter Selinger 2001-2017
</metadata>
<g transform="translate(0.000000,200.000000) scale(0.100000,-0.100000)"
fill="#000000" stroke="none">
<path d="M653 1884 c-7 -20 103 -134 130 -134 40 0 30 31 -29 91 -59 59 -89
73 -101 43z"/>
<path d="M1246 1841 c-59 -60 -69 -91 -29 -91 27 0 137 114 130 134 -12 30
-42 16 -101 -43z"/>
<path d="M969 1788 c-1 -7 -1 -21 0 -30 1 -10 -12 -30 -29 -45 -61 -55 -44
-173 27 -188 46 -10 58 -21 58 -51 0 -40 -40 -47 -55 -10 -7 20 -16 26 -40 26
-20 0 -30 -5 -30 -15 0 -29 28 -83 49 -95 14 -7 21 -21 21 -40 0 -27 3 -30 30
-30 27 0 30 3 30 30 0 19 7 33 20 40 26 14 50 61 50 98 0 44 -39 95 -83 107
-42 12 -57 28 -50 55 10 37 63 31 63 -6 0 -9 12 -14 35 -14 25 0 35 4 35 15 0
24 -27 72 -49 87 -11 8 -21 27 -23 43 -2 24 -8 31 -30 33 -18 2 -28 -2 -29
-10z"/>
<path d="M521 1566 c-9 -11 -8 -18 4 -30 12 -12 36 -16 89 -16 79 0 112 14
100 43 -5 14 -20 17 -94 17 -63 0 -91 -4 -99 -14z"/>
<path d="M1286 1563 c-11 -29 21 -43 98 -43 79 0 100 8 94 36 -3 17 -14 19
-94 22 -80 2 -92 0 -98 -15z"/>
<path d="M707 1302 c-58 -58 -70 -88 -41 -99 23 -9 147 117 138 140 -11 30
-38 18 -97 -41z"/>
<path d="M1196 1343 c-9 -23 115 -149 138 -140 29 12 17 42 -42 100 -59 59
-85 69 -96 40z"/>
<path d="M846 1225 c-66 -17 -121 -47 -136 -75 -6 -10 -10 -93 -10 -184 0 -91
-1 -166 -2 -166 -2 0 -32 9 -66 20 -136 43 -356 19 -423 -46 l-29 -28 0 -272
0 -272 25 -31 c42 -49 109 -66 265 -66 131 0 138 1 196 30 59 29 62 30 90 13
110 -64 379 -64 489 1 29 17 31 16 62 -2 79 -46 269 -62 380 -33 60 16 118 49
127 72 3 9 6 138 6 288 0 309 2 299 -82 337 -48 22 -67 24 -198 24 -128 0
-151 -3 -192 -22 l-48 -22 0 176 0 175 -29 27 c-16 15 -53 36 -83 45 -73 25
-262 31 -342 11z m276 -46 c114 -24 157 -68 103 -103 -116 -76 -475 -50 -475
35 0 57 227 99 372 68z m-122 -194 c125 0 152 3 198 22 l52 21 0 -28 c0 -60
-92 -94 -250 -94 -158 0 -250 34 -250 94 l0 28 53 -21 c45 -19 72 -22 197 -22z
m-170 -113 c31 -10 84 -15 170 -15 117 0 157 7 233 38 14 6 17 2 17 -24 0 -63
-110 -96 -288 -89 -89 4 -118 9 -158 29 -43 21 -49 28 -52 58 -3 29 -1 33 15
26 10 -4 38 -14 63 -23z m-212 -97 c27 -8 57 -24 68 -36 19 -21 19 -21 -5 -40
-55 -45 -230 -64 -350 -38 -54 11 -101 42 -101 65 0 20 72 53 138 64 71 11
185 4 250 -15z m1066 4 c98 -27 113 -68 39 -102 -37 -16 -73 -22 -159 -25
-124 -5 -209 13 -245 49 -20 20 -20 21 -3 40 17 19 86 43 149 53 44 6 174 -2
219 -15z m-839 -35 c99 -27 306 -14 378 23 l28 14 -3 -38 c-3 -36 -6 -39 -63
-63 -53 -21 -75 -24 -185 -24 -110 0 -132 3 -185 24 -57 24 -60 27 -63 63 -3
37 -3 38 19 26 13 -6 46 -18 74 -25z m-497 -134 c85 -17 232 -8 300 18 l52 20
0 -29 c0 -58 -61 -86 -205 -96 -67 -4 -106 -1 -155 11 -90 23 -110 38 -110 81
l0 36 28 -15 c15 -8 55 -20 90 -26z m462 18 c47 -19 74 -22 190 -22 116 0 143
3 190 22 30 12 56 22 58 22 2 0 2 -15 0 -32 -3 -28 -10 -37 -49 -56 -26 -13
-78 -26 -122 -31 -100 -11 -217 2 -276 31 -39 19 -46 28 -49 56 -2 17 -2 32 0
32 2 0 28 -10 58 -22z m730 -22 c115 0 143 3 188 21 l52 21 0 -24 c0 -57 -68
-91 -201 -101 -149 -11 -271 30 -277 94 l-3 32 53 -22 c45 -18 73 -21 188 -21z
m-710 -109 c122 -34 284 -28 376 12 l44 20 0 -35 c0 -33 -4 -37 -57 -62 -54
-25 -67 -27 -193 -27 -126 0 -139 2 -192 27 -55 26 -58 29 -58 64 0 28 3 34
13 26 6 -5 37 -17 67 -25z m-520 -5 c88 -30 272 -19 373 23 14 6 17 2 17 -22
0 -61 -80 -94 -231 -94 -99 -1 -164 11 -211 39 -22 13 -28 24 -28 50 0 29 3
33 18 27 9 -4 37 -14 62 -23z m1070 0 c30 -10 84 -15 160 -15 107 0 149 7 223
38 14 6 17 2 17 -19 0 -66 -96 -100 -264 -94 -94 3 -119 7 -161 28 -44 22 -50
29 -53 59 -3 29 -1 33 15 26 10 -4 38 -14 63 -23z m-1065 -127 c107 -28 289
-16 363 24 21 11 22 10 22 -23 0 -43 -20 -59 -105 -80 -107 -28 -275 -14 -340
28 -19 13 -25 25 -25 52 0 29 3 34 13 26 7 -6 40 -18 72 -27z m685 -9 c111 0
145 3 193 20 l57 21 0 -27 c0 -58 -86 -92 -240 -93 -166 -2 -260 31 -260 92
l0 28 58 -21 c47 -17 81 -20 192 -20z m540 0 c115 0 143 3 188 21 l52 21 0
-22 c0 -69 -78 -101 -245 -101 -103 1 -127 4 -170 23 -56 26 -65 36 -65 74 l0
26 53 -21 c44 -18 72 -21 187 -21z m-1080 -129 c107 0 148 7 223 38 14 6 17 2
17 -22 0 -52 -44 -77 -164 -94 -85 -11 -197 2 -262 31 -40 17 -44 22 -44 54
l0 34 58 -20 c45 -17 80 -21 172 -21z m380 15 c103 -29 293 -18 393 23 28 12
23 -50 -5 -69 -91 -60 -365 -60 -455 0 -29 19 -34 81 -5 69 9 -4 42 -14 72
-23z m540 1 c102 -33 279 -22 388 23 13 6 16 -23 6 -51 -19 -48 -178 -82 -310
-65 -103 13 -158 43 -162 89 -3 24 0 32 10 28 7 -3 38 -14 68 -24z"/>
</g>
</svg>
